<svg xmlns="http://www.w3.org/2000/svg" viewBox="0 0 1200 900" width="1200" height="900" role="img" aria-label="여행 사진 자리표시자">
  <defs>
    <linearGradient id="sky" x1="0" y1="0" x2="0" y2="1">
      <stop offset="0%" stop-color="#0a1410"/>
      <stop offset="100%" stop-color="#17402f"/>
    </linearGradient>
    <radialGradient id="glow" cx="50%" cy="50%" r="50%">
      <stop offset="0%" stop-color="#7fd6a2" stop-opacity="0.85"/>
      <stop offset="60%" stop-color="#7fd6a2" stop-opacity="0.18"/>
      <stop offset="100%" stop-color="#7fd6a2" stop-opacity="0"/>
    </radialGradient>
    <linearGradient id="haze" x1="0" y1="0" x2="0" y2="1">
      <stop offset="0%" stop-color="#7fd6a2" stop-opacity="0.14"/>
      <stop offset="100%" stop-color="#7fd6a2" stop-opacity="0"/>
    </linearGradient>
  </defs>

  <rect width="1200" height="900" fill="url(#sky)"/>
  <circle cx="888.0" cy="414.0" r="306.0" fill="url(#glow)"/>
  <circle cx="888.0" cy="414.0" r="76.5" fill="#7fd6a2" opacity="0.92"/>
  <rect y="396.0" width="1200" height="162.0" fill="url(#haze)"/>

  <polygon points="0.0,571.6 100.0,551.6 200.0,533.2 300.0,520.9 400.0,517.7 500.0,524.3 600.0,539.2 700.0,558.7 800.0,578.0 900.0,592.4 1000.0,598.4 1100.0,594.5 1200.0,581.7 1200,900 0,900" fill="#102b20" opacity="0.95"/>
  <polygon points="0.0,682.0 100.0,688.1 200.0,686.6 300.0,677.9 400.0,664.0 500.0,648.4 600.0,635.0 700.0,626.9 800.0,626.2 900.0,633.0 1000.0,645.7 1100.0,661.2 1200.0,675.7 1200,900 0,900" fill="#0a1c15"/>
  <polygon points="0.0,809.4 100.0,809.5 200.0,805.2 300.0,797.7 400.0,788.9 500.0,780.7 600.0,775.4 700.0,774.1 800.0,777.2 900.0,783.9 1000.0,792.6 1100.0,801.2 1200.0,807.5 1200,900 0,900" fill="#05100c"/>
</svg>
